<?xml version="1.0" encoding="utf-8"?>
<!-- Generator: Adobe Illustrator 28.1.0, SVG Export Plug-In . SVG Version: 6.00 Build 0)  -->
<svg version="1.1" id="Слой_1" xmlns="http://www.w3.org/2000/svg"
  xmlns:xlink="http://www.w3.org/1999/xlink"
>
  <style type="text/css">
    .st0{fill:#1D1D1B;}
    .st1{fill:#CDDE00;}
</style>
  <path class="st0"
    d="M87.9,56.7c-2.6,2.4-6,4.1-10.1,5.1c-4.1,1-8.5,1.1-13.3,0.3l-2-0.3l-0.7,2.7l-10.6-0.2l0.7-4.2l-1.6-0.3
	L50,59.7l-0.1,0c-4.6-0.8-8.8-2.3-12.5-4.6c-3.7-2.3-6.6-5-8.5-8.2c-1.9-3.2-2.6-6.5-2.1-9.8c0.6-3.4,2.3-6.3,5.1-8.7
	c2.8-2.4,6.4-4,10.6-5c4.2-1,8.7-1.1,13.3-0.4l2.1,0.3l0.7-2.8l10.6,1.7l-0.7,2.8l2,0.3c4.8,0.8,9,2.3,12.5,4.6
	c3.6,2.2,6.2,4.9,7.9,8c1.7,3.1,2.3,6.4,1.7,9.9C92.1,51.4,90.5,54.3,87.9,56.7z M53.4,50.5l2.9-17.7l-1.4-0.2
	C51,32,47.4,32.1,44.1,33c-3.3,0.9-5.2,2.9-5.8,6.1c-0.5,3.1,0.7,5.6,3.5,7.5c2.9,1.9,6.2,3.2,10.1,3.8L53.4,50.5z M65.9,52.6
	c3.9,0.6,7.3,0.5,10.4-0.4c3-0.9,4.8-2.9,5.3-6.1c0.5-3.2-0.5-5.7-3.1-7.6c-2.6-1.8-5.8-3.1-9.7-3.7l-1.8-0.3L64,52.3L65.9,52.6z" />
  <path class="st1"
    d="M86.3,53.6c-2.6,2.4-6,4.1-10.1,5.1c-4.1,1-8.5,1.1-13.3,0.3l-2-0.3l-0.7,2.7l-10.6-0.2l0.7-4.2l-1.6-0.3
	l-0.3-0.1l-0.1,0c-4.6-0.8-8.8-2.3-12.5-4.6c-3.7-2.3-6.6-5-8.5-8.2c-1.9-3.2-2.6-6.5-2.1-9.8c0.6-3.4,2.3-6.3,5.1-8.7
	c2.8-2.4,6.4-4,10.6-5c4.2-1,8.7-1.1,13.3-0.4l2.1,0.3l0.7-2.8l10.6,1.7L66.9,22l2,0.3c4.8,0.8,9,2.3,12.5,4.6
	c3.6,2.2,6.2,4.9,7.9,8c1.7,3.1,2.3,6.4,1.7,9.9C90.6,48.3,89,51.2,86.3,53.6z M51.9,47.4l2.9-17.7l-1.4-0.2
	c-3.9-0.6-7.5-0.5-10.8,0.4c-3.3,0.9-5.2,2.9-5.8,6.1c-0.5,3.1,0.7,5.6,3.5,7.5c2.9,1.9,6.2,3.2,10.1,3.8L51.9,47.4z M64.3,49.5
	c3.9,0.6,7.3,0.5,10.4-0.4c3-0.9,4.8-2.9,5.3-6.1c0.5-3.2-0.5-5.7-3.1-7.6c-2.6-1.8-5.8-3.1-9.7-3.7l-1.8-0.3l-2.9,17.7L64.3,49.5z"
  />
</svg>