<svg width="34" height="42" viewBox="0 0 34 42" fill="none" xmlns="http://www.w3.org/2000/svg">
<path d="M12.7646 33.958C13.0888 34.2637 14.5259 35.5505 16.6149 35.4126C18.3097 35.3006 19.4462 34.3163 19.8234 33.958" stroke="#460000" stroke-width="1.50943" stroke-miterlimit="10" stroke-linecap="round" stroke-linejoin="round"/>
<path d="M6.59374 25.4135C8.09759 28.2059 10.6271 29.7245 12.2436 28.8054C13.8601 27.8863 13.9514 24.8775 12.4476 22.085C10.9437 19.2926 8.4142 17.774 6.79767 18.6931C5.18114 19.6122 5.0899 22.6211 6.59374 25.4135Z" stroke="#460000" stroke-width="1.50943" stroke-miterlimit="10"/>
<path d="M16.6863 41C9.13909 41 6.49019 32.1111 6.49019 32.1111C6.49019 32.1111 1 27.6666 1 17.8889C1 6.59774 8.84309 1 16.6863 1C24.5294 1 32.3725 6.59774 32.3725 17.8889C32.3725 27.6667 27.0368 31.7609 26.8823 32.1111C23.7451 39.2222 19.9909 41 16.6863 41Z" stroke="#460000" stroke-width="1.50943" stroke-miterlimit="10" stroke-linecap="round" stroke-linejoin="round"/>
<path d="M26.5647 25.4135C25.0609 28.2059 22.5314 29.7245 20.9148 28.8054C19.2984 27.8863 19.2071 24.8775 20.7109 22.085C22.2148 19.2926 24.7443 17.774 26.3608 18.6931C27.9772 19.6123 28.0686 22.6211 26.5647 25.4135Z" stroke="#460000" stroke-width="1.50943" stroke-miterlimit="10"/>
</svg>
