<?xml version="1.0" encoding="utf-8"?>
<!-- Generator: Adobe Illustrator 28.1.0, SVG Export Plug-In . SVG Version: 6.00 Build 0)  -->
<svg version="1.1" id="Слой_1" xmlns="http://www.w3.org/2000/svg" xmlns:xlink="http://www.w3.org/1999/xlink" x="0px" y="0px"
	 viewBox="0 0 110 135" style="enable-background:new 0 0 110 135;" xml:space="preserve">
<style type="text/css">
	.st0{fill:#E20E4A;}
</style>
<path class="st0" d="M99,36.2c3.9,7.3,6,15.5,6,23.8c0,7.9-1.8,15.3-5.2,22.3c-0.3,0.5-0.8,0.9-1.4,0.9c-0.2,0-0.5-0.1-0.7-0.2
	c-0.8-0.4-1.1-1.3-0.7-2.1c3.2-6.5,4.9-13.5,4.9-20.9c0-7.8-1.9-15.5-5.6-22.3c-0.4-0.8-0.1-1.7,0.6-2.1
	C97.6,35.2,98.6,35.5,99,36.2L99,36.2z M75.2,102.3c-6.3,3-13.1,4.6-20.2,4.6c-25.8,0-46.9-21-46.9-46.9c0-7.2,1.6-14.1,4.7-20.4
	c0.4-0.8,0.1-1.7-0.7-2.1c-0.8-0.4-1.7-0.1-2.1,0.7C6.7,45,5,52.4,5,60c0,27.6,22.4,50,50,50c7.5,0,14.8-1.6,21.5-4.9
	c0.8-0.4,1.1-1.3,0.7-2.1C76.9,102.3,75.9,102,75.2,102.3L75.2,102.3z M33.8,18c0.2,0,0.5-0.1,0.7-0.2c6.4-3.1,13.3-4.7,20.5-4.7
	c5.6,0,11.1,1,16.3,2.9c0.2,0.1,0.4,0.1,0.5,0.1h0c0.9,0,1.6-0.7,1.6-1.6c0-0.7-0.4-1.3-1.1-1.5C66.8,11,61,10,55,10
	c-7.7,0-15.1,1.7-21.9,5.1c-0.8,0.4-1.1,1.3-0.7,2.1C32.7,17.7,33.2,18,33.8,18L33.8,18z M5.9,20.1c1.8-4.5,6.1-5.9,9.4-5.2
	c1.5,0.3,2.8,1,3.7,1.9c0.9-1,2.2-1.7,3.7-1.9c3.3-0.6,7.6,0.7,9.4,5.2C36.6,31,20.4,39.2,19.8,39.5c-0.2,0.1-0.5,0.2-0.7,0.2
	c-0.2,0-0.5-0.1-0.7-0.2C17.7,39.2,1.6,31,5.9,20.1L5.9,20.1z M19.1,36.4c2.8-1.6,13.1-7.9,10.2-15.1c-1.1-2.9-3.8-3.7-5.9-3.3
	c-1.3,0.3-2.8,1.1-2.8,2.7c0,0.9-0.7,1.6-1.6,1.6s-1.6-0.7-1.6-1.6c0-1.6-1.4-2.5-2.8-2.7c-0.3-0.1-0.7-0.1-1-0.1
	c-1.9,0-3.9,1-4.9,3.4C6,28.4,16.2,34.8,19.1,36.4L19.1,36.4z M100.9,88.8c4.4,10.9-11.8,19.1-12.4,19.5c-0.2,0.1-0.5,0.2-0.7,0.2
	s-0.5-0.1-0.7-0.2c-0.7-0.3-16.8-8.5-12.4-19.5c1.8-4.5,6.1-5.9,9.4-5.2c1.5,0.3,2.8,1,3.7,1.9c0.9-1,2.2-1.7,3.7-1.9
	C94.8,83,99.1,84.3,100.9,88.8L100.9,88.8z M98,90c-1.1-2.9-3.8-3.7-5.9-3.3c-1.3,0.3-2.8,1.1-2.8,2.7c0,0.9-0.7,1.6-1.6,1.6
	s-1.6-0.7-1.6-1.6c0-1.6-1.4-2.5-2.8-2.7c-0.3-0.1-0.7-0.1-1-0.1c-1.9,0-3.9,1-4.9,3.4c-2.9,7.2,7.4,13.5,10.2,15.1
	C90.6,103.5,100.9,97.2,98,90L98,90z M74.6,16.1c2-5,6.9-6.5,10.5-5.8c1.8,0.3,3.3,1.2,4.3,2.3c1-1.2,2.5-2,4.3-2.3
	c3.7-0.7,8.5,0.8,10.5,5.8c4.9,12.3-13.3,21.4-14.1,21.8c-0.2,0.1-0.5,0.2-0.7,0.2s-0.5-0.1-0.7-0.2C87.9,37.6,69.7,28.5,74.6,16.1
	L74.6,16.1z M89.4,34.8c3.1-1.7,15.3-9,11.9-17.5c-1.4-3.4-4.5-4.4-7-3.9c-1.6,0.3-3.3,1.4-3.3,3.3c0,0.9-0.7,1.6-1.6,1.6
	s-1.6-0.7-1.6-1.6c0-2-1.7-3-3.3-3.3c-0.4-0.1-0.8-0.1-1.2-0.1c-2.2,0-4.7,1.2-5.8,4C74.1,25.8,86.3,33.1,89.4,34.8L89.4,34.8z
	 M80.4,51.6c0.3,0.4,0.8,0.6,1.2,0.6c0.4,0,0.7-0.1,1-0.4c0.7-0.6,0.8-1.5,0.2-2.2c-2.2-2.7-5.5-4.2-9-4.2c-3.5,0-6.8,1.5-9,4.2
	c-0.6,0.7-0.5,1.6,0.2,2.2c0.7,0.6,1.6,0.5,2.2-0.2c1.6-2,4.1-3.1,6.6-3.1S78.7,49.7,80.4,51.6L80.4,51.6z M42.9,51.6
	c0.3,0.4,0.8,0.6,1.2,0.6c0.4,0,0.7-0.1,1-0.4c0.7-0.6,0.8-1.5,0.2-2.2c-2.2-2.7-5.5-4.2-9-4.2s-6.8,1.5-9,4.2
	c-0.6,0.7-0.5,1.6,0.2,2.2c0.7,0.6,1.6,0.5,2.2-0.2c1.6-2,4.1-3.1,6.6-3.1S41.2,49.7,42.9,51.6L42.9,51.6z M31.6,64.7
	c0-0.6,0.4-1.2,1-1.4c0.6-0.2,1.3-0.1,1.7,0.4c2,2.1,9.4,8.9,20.7,8.9c2.9,0,12.9-0.6,20.7-8.9c0.4-0.5,1.1-0.6,1.7-0.4
	c0.6,0.2,1,0.8,1,1.4c0,12.9-10.5,23.4-23.4,23.4C42.1,88.1,31.6,77.6,31.6,64.7L31.6,64.7z M35.1,68.5C36.9,77.9,45.1,85,55,85
	c9.9,0,18.1-7.1,19.9-16.4c-8.1,6.5-17.1,7-19.9,7C45.8,75.6,38.9,71.6,35.1,68.5L35.1,68.5z"/>
</svg>
