<svg width="42" height="42" viewBox="0 0 42 42" fill="none" xmlns="http://www.w3.org/2000/svg">
<path d="M21.3998 40.9998C32.2246 40.9998 40.9998 32.2246 40.9998 21.3998C40.9998 10.575 32.2246 1.7998 21.3998 1.7998C10.575 1.7998 1.7998 10.575 1.7998 21.3998C1.7998 32.2246 10.575 40.9998 21.3998 40.9998Z" stroke="#5A5A5B" stroke-width="1.96" stroke-linecap="round" stroke-linejoin="round"/>
<path d="M21.3964 33.1666C23.5882 33.1666 25.7365 32.5542 27.5989 31.3986C29.45 30.2499 30.9456 28.6099 31.9192 26.6615L10.856 26.626C11.8291 28.5899 13.3316 30.243 15.194 31.3986C17.0564 32.5542 19.2046 33.1666 21.3964 33.1666Z" stroke="#5A5A5B" stroke-width="1.96" stroke-linecap="round" stroke-linejoin="round"/>
<path d="M33.1598 18.7871C32.8897 18.0226 32.3893 17.3606 31.7273 16.8924C31.0654 16.4243 30.2744 16.1729 29.4636 16.1729C28.6529 16.1729 27.8621 16.4243 27.2001 16.8924C26.5468 17.3545 26.0508 18.0053 25.7783 18.757" stroke="#5A5A5B" stroke-width="1.96" stroke-linecap="round" stroke-linejoin="round"/>
<path d="M9.64062 18.7871C9.9107 18.0226 10.4112 17.3606 11.0731 16.8924C11.7351 16.4243 12.526 16.1729 13.3367 16.1729C14.1476 16.1729 14.9384 16.4243 15.6004 16.8924C16.2537 17.3545 16.7497 18.0053 17.0221 18.7572" stroke="#5A5A5B" stroke-width="1.96" stroke-linecap="round" stroke-linejoin="round"/>
</svg>
