<svg width="40" height="40" viewBox="0 0 40 40" fill="none" xmlns="http://www.w3.org/2000/svg">
<path d="M12.8011 29.5987L12.8001 29.6C12.4686 30.0413 11.8417 30.1312 11.4001 29.8C10.9582 29.4686 10.8687 28.8418 11.2001 28.4L12.0001 29C11.2001 28.4 11.1998 28.4003 11.2001 28.4L11.2011 28.3986L11.2025 28.3968L11.2061 28.3921L11.2165 28.3784C11.225 28.3673 11.2365 28.3526 11.2509 28.3344C11.2798 28.2979 11.3205 28.2476 11.3728 28.1853C11.4773 28.0607 11.6287 27.8879 11.8249 27.6831C12.2167 27.2743 12.7922 26.7328 13.5369 26.1913C15.0223 25.1109 17.2245 24 20.0001 24C22.7756 24 24.9778 25.1109 26.4632 26.1913C27.2079 26.7328 27.7834 27.2743 28.1752 27.6831C28.3715 27.8879 28.5228 28.0607 28.6274 28.1853C28.6797 28.2476 28.7204 28.2979 28.7492 28.3344L28.7679 28.3582L28.7836 28.3784L28.7941 28.3921L28.7976 28.3968L28.799 28.3986C28.7992 28.3989 28.8001 28.4 28.0354 28.9735L28.8001 28.4C29.1314 28.8418 29.0419 29.4686 28.6001 29.8C28.1589 30.1309 27.5333 30.0421 27.2016 29.602L27.2009 29.6011C27.2007 29.6008 27.2001 29.6 28.0001 29L27.2001 29.6L27.199 29.5987L27.1811 29.5758C27.1636 29.5536 27.1349 29.5181 27.0954 29.471C27.0164 29.3768 26.8943 29.2371 26.7312 29.0669C26.4042 28.7257 25.9172 28.2672 25.2869 27.8087C24.0223 26.8891 22.2245 26 20.0001 26C17.7756 26 15.9778 26.8891 14.7132 27.8087C14.0829 28.2672 13.5959 28.7257 13.2689 29.0669C13.1058 29.2371 12.9838 29.3768 12.9047 29.471C12.8652 29.5181 12.8366 29.5536 12.819 29.5758L12.8011 29.5987Z" fill="#5A5A5B"/>
<path d="M13.6284 16.0718C14.1412 15.8667 14.7232 16.1161 14.9283 16.6289C15.1334 17.1417 14.884 17.7237 14.3712 17.9288L11.8718 18.9286L9.3712 19.9288C8.8584 20.1339 8.2765 19.8845 8.0713 19.3717C7.8662 18.8589 8.1156 18.277 8.6284 18.0718L13.6284 16.0718Z" fill="#5A5A5B"/>
<path d="M25.0713 16.6289C25.2764 16.1161 25.8584 15.8667 26.3712 16.0718L31.3712 18.0718C31.884 18.277 32.1334 18.8589 31.9283 19.3717C31.7231 19.8845 31.1412 20.1339 30.6284 19.9288L25.6284 17.9288C25.1156 17.7237 24.8662 17.1417 25.0713 16.6289Z" fill="#5A5A5B"/>
<path fill-rule="evenodd" clip-rule="evenodd" d="M40 20C40 31.0457 31.0457 40 20 40C8.9543 40 0 31.0457 0 20C0 8.9543 8.9543 0 20 0C31.0457 0 40 8.9543 40 20ZM38 20C38 29.9411 29.9411 38 20 38C10.0589 38 2 29.9411 2 20C2 10.0589 10.0589 2 20 2C29.9411 2 38 10.0589 38 20Z" fill="#5A5A5B"/>
</svg>
