<?xml version="1.0" encoding="utf-8"?>
<!-- Generator: Adobe Illustrator 28.1.0, SVG Export Plug-In . SVG Version: 6.00 Build 0)  -->
<svg version="1.1" id="Слой_1" xmlns="http://www.w3.org/2000/svg" xmlns:xlink="http://www.w3.org/1999/xlink" x="0px" y="0px"
	 viewBox="0 0 110 135" style="enable-background:new 0 0 110 135;" xml:space="preserve">
<style type="text/css">
	.st0{fill:#929292;}
</style>
<path class="st0" d="M55,10C27.4,10,5,32.4,5,60s22.4,50,50,50s50-22.4,50-50S82.6,10,55,10z M55,106.9c-25.8,0-46.9-21-46.9-46.9
	s21-46.9,46.9-46.9s46.9,21,46.9,46.9S80.8,106.9,55,106.9z M70.6,39.7c-6,0-10.9,6.3-10.9,14.1c0,8.4,5.5,14.1,10.9,14.1
	c5.5,0,10.9-5.7,10.9-14.1C81.6,46,76.7,39.7,70.6,39.7z M70.6,64.7c-2.6,0-4.7-2.1-4.7-4.7s2.1-4.7,4.7-4.7s4.7,2.1,4.7,4.7
	S73.2,64.7,70.6,64.7z M78,57.4c-1.1-3-3.9-5.2-7.3-5.2c-3.4,0-6.3,2.2-7.3,5.2c-0.3-1.2-0.5-2.4-0.5-3.7c0-6,3.5-10.9,7.8-10.9
	s7.8,4.9,7.8,10.9C78.4,55,78.3,56.3,78,57.4L78,57.4z M28.2,38.9c-0.3,0.5-0.8,0.8-1.3,0.8c-0.3,0-0.6-0.1-0.8-0.2
	c-0.7-0.4-1-1.4-0.5-2.1c0.2-0.3,5.2-8.6,13.8-8.6c0.9,0,1.6,0.7,1.6,1.6s-0.7,1.6-1.6,1.6C32.6,31.9,28.3,38.9,28.2,38.9L28.2,38.9
	z M84.5,37.3c0.4,0.7,0.2,1.7-0.5,2.1c-0.2,0.2-0.5,0.2-0.8,0.2c-0.5,0-1-0.3-1.3-0.8c-0.1-0.1-4.4-7.1-11.2-7.1
	c-0.9,0-1.6-0.7-1.6-1.6s0.7-1.6,1.6-1.6C79.2,28.7,84.3,37,84.5,37.3L84.5,37.3z M74.9,83.9c0.6,0.6,0.6,1.6,0,2.2
	c-0.6,0.6-1.6,0.6-2.2,0c-6.8-6.8-15.2-7.4-17.6-7.4c-9.6,0-15.9,5.6-17.6,7.4c-0.3,0.3-0.7,0.5-1.1,0.5c-0.4,0-0.8-0.2-1.1-0.5
	c-0.6-0.6-0.6-1.6,0-2.2c1.9-1.9,9-8.3,19.9-8.3C57.7,75.6,67.2,76.2,74.9,83.9L74.9,83.9z M39.4,67.8c5.5,0,10.9-5.7,10.9-14.1
	c0-7.8-4.9-14.1-10.9-14.1S28.4,46,28.4,53.7C28.4,62.2,33.9,67.8,39.4,67.8z M34.7,60c0-2.6,2.1-4.7,4.7-4.7s4.7,2.1,4.7,4.7
	s-2.1,4.7-4.7,4.7S34.7,62.6,34.7,60z M39.4,42.8c4.3,0,7.8,4.9,7.8,10.9c0,1.3-0.2,2.5-0.5,3.7c-1.1-3-3.9-5.2-7.3-5.2
	c-3.4,0-6.3,2.2-7.3,5.2c-0.3-1.2-0.5-2.4-0.5-3.7C31.6,47.7,35.1,42.8,39.4,42.8L39.4,42.8z"/>
</svg>
